<?xml version="1.0" encoding="UTF-8" standalone="no"?>
<!-- Created with Inkscape (http://www.inkscape.org/) -->

<svg
   xmlns:dc="http://purl.org/dc/elements/1.1/"
   xmlns:cc="http://creativecommons.org/ns#"
   xmlns:rdf="http://www.w3.org/1999/02/22-rdf-syntax-ns#"
   xmlns:svg="http://www.w3.org/2000/svg"
   xmlns="http://www.w3.org/2000/svg"
   xmlns:xlink="http://www.w3.org/1999/xlink"
   xmlns:sodipodi="http://sodipodi.sourceforge.net/DTD/sodipodi-0.dtd"
   xmlns:inkscape="http://www.inkscape.org/namespaces/inkscape"
   version="1.0"
   width="96"
   height="96"
   id="svg2408"
   inkscape:version="0.48.4 r9939"
   sodipodi:docname="therm.svg">
  <sodipodi:namedview
     pagecolor="#ffffff"
     bordercolor="#666666"
     borderopacity="1"
     objecttolerance="10"
     gridtolerance="10"
     guidetolerance="10"
     inkscape:pageopacity="0"
     inkscape:pageshadow="2"
     inkscape:window-width="956"
     inkscape:window-height="1052"
     id="namedview68"
     showgrid="false"
     inkscape:zoom="4"
     inkscape:cx="40.691453"
     inkscape:cy="34.55145"
     inkscape:window-x="0"
     inkscape:window-y="24"
     inkscape:window-maximized="0"
     inkscape:current-layer="svg2408"
     inkscape:object-nodes="true"
     inkscape:snap-smooth-nodes="false"
     inkscape:object-paths="true"
     inkscape:snap-global="true"
     showguides="true"
     inkscape:guide-bbox="true" />
  <defs
     id="defs2410">
    <linearGradient
       id="linearGradient3224">
      <stop
         id="stop3226"
         style="stop-color:#42394b;stop-opacity:1"
         offset="0" />
      <stop
         id="stop3228"
         style="stop-color:#000000;stop-opacity:1"
         offset="1" />
    </linearGradient>
    <linearGradient
       id="linearGradient3465">
      <stop
         id="stop3467"
         style="stop-color:#919191;stop-opacity:1"
         offset="0" />
      <stop
         id="stop3469"
         style="stop-color:#fdfdfd;stop-opacity:1"
         offset="1" />
    </linearGradient>
    <linearGradient
       id="linearGradient3187">
      <stop
         id="stop3189"
         style="stop-color:#b4b4b4;stop-opacity:1"
         offset="0" />
      <stop
         id="stop3191"
         style="stop-color:#e6e6e6;stop-opacity:1"
         offset="1" />
    </linearGradient>
    <linearGradient
       x1="45.447727"
       y1="92.539597"
       x2="45.447727"
       y2="7.0165396"
       id="ButtonShadow"
       gradientUnits="userSpaceOnUse"
       gradientTransform="scale(1.0058652,0.994169)">
      <stop
         id="stop3750"
         style="stop-color:#000000;stop-opacity:1"
         offset="0" />
      <stop
         id="stop3752"
         style="stop-color:#000000;stop-opacity:0.58823532"
         offset="1" />
    </linearGradient>
    <linearGradient
       id="linearGradient3737">
      <stop
         id="stop3739"
         style="stop-color:#ffffff;stop-opacity:1"
         offset="0" />
      <stop
         id="stop3741"
         style="stop-color:#ffffff;stop-opacity:0"
         offset="1" />
    </linearGradient>
    <filter
       color-interpolation-filters="sRGB"
       id="filter3174">
      <feGaussianBlur
         id="feGaussianBlur3176"
         stdDeviation="1.71" />
    </filter>
    <linearGradient
       x1="36.357143"
       y1="6"
       x2="36.357143"
       y2="63.893143"
       id="linearGradient3188"
       xlink:href="#linearGradient3737"
       gradientUnits="userSpaceOnUse" />
    <linearGradient
       x1="48"
       y1="90"
       x2="48"
       y2="5.9877172"
       id="linearGradient3427"
       xlink:href="#linearGradient3187"
       gradientUnits="userSpaceOnUse" />
    <radialGradient
       cx="47.098362"
       cy="78.286942"
       r="38.957481"
       fx="47.098362"
       fy="78.286942"
       id="radialGradient3205"
       xlink:href="#linearGradient3224"
       gradientUnits="userSpaceOnUse"
       gradientTransform="matrix(1.3830053,-1.0350102e-8,0,1.3123934,-18.038924,-24.218731)" />
    <linearGradient
       x1="43.17857"
       y1="13"
       x2="43.17857"
       y2="83.294571"
       id="linearGradient3279"
       xlink:href="#linearGradient3465"
       gradientUnits="userSpaceOnUse"
       gradientTransform="matrix(1.0294118,0,0,1.0294118,-1.4117647,-1.411765)" />
    <linearGradient
       id="linearGradient3737-7">
      <stop
         id="stop3739-2"
         style="stop-color:#ffffff;stop-opacity:1"
         offset="0" />
      <stop
         id="stop3741-7"
         style="stop-color:#ffffff;stop-opacity:0"
         offset="1" />
    </linearGradient>
    <radialGradient
       cx="48"
       cy="90.171875"
       r="42"
       fx="48"
       fy="90.171875"
       id="radialGradient2874"
       xlink:href="#linearGradient3737-7"
       gradientUnits="userSpaceOnUse"
       gradientTransform="matrix(1.1573129,0,0,0.99590774,-7.551021,0.1971319)" />
    <linearGradient
       id="linearGradient3737-4">
      <stop
         id="stop3739-8"
         style="stop-color:#ffffff;stop-opacity:1"
         offset="0" />
      <stop
         id="stop3741-71"
         style="stop-color:#ffffff;stop-opacity:0"
         offset="1" />
    </linearGradient>
    <clipPath
       id="clipPath3613">
      <rect
         width="84"
         height="84"
         rx="6"
         ry="6"
         x="6"
         y="6"
         id="rect3615"
         style="fill:#ffffff;fill-opacity:1;fill-rule:nonzero;stroke:none" />
    </clipPath>
    <filter
       x="-0.192"
       y="-0.192"
       width="1.3839999"
       height="1.3839999"
       color-interpolation-filters="sRGB"
       id="filter3794">
      <feGaussianBlur
         id="feGaussianBlur3796"
         stdDeviation="5.28" />
    </filter>
    <linearGradient
       x1="48"
       y1="20.220806"
       x2="48"
       y2="138.66119"
       id="linearGradient2908"
       xlink:href="#linearGradient3737-4"
       gradientUnits="userSpaceOnUse" />
    <linearGradient
       x1="45.447727"
       y1="92.539597"
       x2="45.447727"
       y2="7.0165396"
       id="ButtonShadow-0"
       gradientUnits="userSpaceOnUse"
       gradientTransform="matrix(1.0058652,0,0,0.994169,100,0)">
      <stop
         id="stop3750-8"
         style="stop-color:#000000;stop-opacity:1"
         offset="0" />
      <stop
         id="stop3752-5"
         style="stop-color:#000000;stop-opacity:0.58823532"
         offset="1" />
    </linearGradient>
    <linearGradient
       x1="32.251034"
       y1="6.1317081"
       x2="32.251034"
       y2="90.238609"
       id="linearGradient3780"
       xlink:href="#ButtonShadow-0"
       gradientUnits="userSpaceOnUse"
       gradientTransform="matrix(1.0238095,0,0,1.0119048,-1.1428571,-98.071429)" />
    <linearGradient
       x1="32.251034"
       y1="6.1317081"
       x2="32.251034"
       y2="90.238609"
       id="linearGradient3772"
       xlink:href="#ButtonShadow-0"
       gradientUnits="userSpaceOnUse"
       gradientTransform="matrix(1.0238095,0,0,1.0119048,-1.1428571,-98.071429)" />
    <linearGradient
       x1="32.251034"
       y1="6.1317081"
       x2="32.251034"
       y2="90.238609"
       id="linearGradient3725"
       xlink:href="#ButtonShadow-0"
       gradientUnits="userSpaceOnUse"
       gradientTransform="matrix(1.0238095,0,0,1.0119048,-1.1428571,-98.071429)" />
    <linearGradient
       x1="32.251034"
       y1="6.1317081"
       x2="32.251034"
       y2="90.238609"
       id="linearGradient3721"
       xlink:href="#ButtonShadow-0"
       gradientUnits="userSpaceOnUse"
       gradientTransform="translate(0,-97)" />
    <linearGradient
       x1="32.251034"
       y1="6.1317081"
       x2="32.251034"
       y2="90.238609"
       id="linearGradient3224-3"
       xlink:href="#ButtonShadow-0"
       gradientUnits="userSpaceOnUse"
       gradientTransform="matrix(1.0238095,0,0,1.0119048,-1.1428571,-98.071429)" />
    <radialGradient
       inkscape:collect="always"
       xlink:href="#linearGradient3737-7"
       id="radialGradient3066"
       gradientUnits="userSpaceOnUse"
       gradientTransform="matrix(1.1573129,0,0,0.99590774,-7.551021,0.1971319)"
       cx="48"
       cy="90.171875"
       fx="48"
       fy="90.171875"
       r="42" />
    <linearGradient
       inkscape:collect="always"
       xlink:href="#linearGradient3465"
       id="linearGradient3069"
       gradientUnits="userSpaceOnUse"
       gradientTransform="matrix(1.0294118,0,0,1.0294118,-1.4117647,-1.411765)"
       x1="43.17857"
       y1="13"
       x2="43.17857"
       y2="83.294571" />
    <linearGradient
       inkscape:collect="always"
       xlink:href="#linearGradient3737"
       id="linearGradient3072"
       gradientUnits="userSpaceOnUse"
       x1="36.357143"
       y1="6"
       x2="36.357143"
       y2="63.893143" />
    <linearGradient
       inkscape:collect="always"
       xlink:href="#linearGradient3187"
       id="linearGradient3075"
       gradientUnits="userSpaceOnUse"
       x1="48"
       y1="90"
       x2="48"
       y2="5.9877172" />
    <radialGradient
       inkscape:collect="always"
       xlink:href="#linearGradient3224"
       id="radialGradient3084"
       gradientUnits="userSpaceOnUse"
       gradientTransform="matrix(1.3830053,-1.0350102e-8,0,1.3123934,-18.038924,-24.218731)"
       cx="47.098362"
       cy="78.286942"
       fx="47.098362"
       fy="78.286942"
       r="38.957481" />
    <linearGradient
       inkscape:collect="always"
       xlink:href="#ButtonShadow-0"
       id="linearGradient3087"
       gradientUnits="userSpaceOnUse"
       gradientTransform="translate(0,-97)"
       x1="32.251034"
       y1="6.1317081"
       x2="32.251034"
       y2="90.238609" />
    <linearGradient
       inkscape:collect="always"
       xlink:href="#ButtonShadow-0"
       id="linearGradient3090"
       gradientUnits="userSpaceOnUse"
       gradientTransform="matrix(1.0238095,0,0,1.0119048,-1.1428571,-98.071429)"
       x1="32.251034"
       y1="6.1317081"
       x2="32.251034"
       y2="90.238609" />
    <linearGradient
       inkscape:collect="always"
       xlink:href="#ButtonShadow-0"
       id="linearGradient3093"
       gradientUnits="userSpaceOnUse"
       gradientTransform="matrix(1.0238095,0,0,-1.0119048,-1.1428571,98.071429)"
       x1="32.251034"
       y1="6.1317081"
       x2="32.251034"
       y2="90.238609" />
    <linearGradient
       inkscape:collect="always"
       xlink:href="#ButtonShadow-0"
       id="linearGradient3096"
       gradientUnits="userSpaceOnUse"
       gradientTransform="matrix(1.0238095,0,0,-1.0119048,-1.1428571,98.071429)"
       x1="32.251034"
       y1="6.1317081"
       x2="32.251034"
       y2="90.238609" />
    <linearGradient
       inkscape:collect="always"
       xlink:href="#ButtonShadow-0"
       id="linearGradient3099"
       gradientUnits="userSpaceOnUse"
       gradientTransform="matrix(1.0238095,0,0,-1.0119048,-1.1428571,98.071429)"
       x1="32.251034"
       y1="6.1317081"
       x2="32.251034"
       y2="90.238609" />
    <filter
       inkscape:collect="always"
       id="filter4367"
       x="-0.22862745"
       width="1.4572549"
       y="-0.14842999"
       height="1.29686">
      <feGaussianBlur
         inkscape:collect="always"
         stdDeviation="1.3664063"
         id="feGaussianBlur4369" />
    </filter>
    <filter
       inkscape:collect="always"
       id="filter4550">
      <feGaussianBlur
         inkscape:collect="always"
         stdDeviation="0.44648455"
         id="feGaussianBlur4552" />
    </filter>
  </defs>
  <metadata
     id="metadata2413">
    <rdf:RDF>
      <cc:Work
         rdf:about="">
        <dc:format>image/svg+xml</dc:format>
        <dc:type
           rdf:resource="http://purl.org/dc/dcmitype/StillImage" />
        <dc:title></dc:title>
      </cc:Work>
    </rdf:RDF>
  </metadata>
  <g
     id="layer2"
     style="display:none">
    <rect
       width="86"
       height="85"
       rx="6"
       ry="6"
       x="5"
       y="7"
       id="rect3745"
       style="opacity:0.9;fill:url(#ButtonShadow);fill-opacity:1;fill-rule:nonzero;stroke:none;filter:url(#filter3174)" />
  </g>
  <path
     inkscape:connector-curvature="0"
     style="opacity:0.07999998;fill:url(#linearGradient3099);fill-opacity:1;fill-rule:nonzero;stroke:none;display:inline"
     id="path3786"
     d="M 12,95.03125 C 6.4889097,95.03125 1.96875,90.51109 1.96875,85 l 0,-71 C 1.96875,8.4889098 6.4889098,3.96875 12,3.96875 l 72,0 c 5.51109,0 10.03125,4.5201597 10.03125,10.03125 l 0,71 c 0,5.51109 -4.52016,10.03125 -10.03125,10.03125 l -72,0 z" />
  <path
     inkscape:connector-curvature="0"
     style="opacity:0.1;fill:url(#linearGradient3096);fill-opacity:1;fill-rule:nonzero;stroke:none;display:inline"
     id="path3778"
     d="M 12,94.03125 C 7.028367,94.03125 2.96875,89.971633 2.96875,85 l 0,-71 C 2.96875,9.0283671 7.0283671,4.96875 12,4.96875 l 72,0 c 4.971633,0 9.03125,4.059617 9.03125,9.03125 l 0,71 c 0,4.971633 -4.059617,9.03125 -9.03125,9.03125 l -72,0 z" />
  <path
     inkscape:connector-curvature="0"
     style="opacity:0.2;fill:url(#linearGradient3093);fill-opacity:1;fill-rule:nonzero;stroke:none;display:inline"
     id="path3770"
     d="M 12,93 C 7.5908667,93 4,89.409133 4,85 L 4,14 C 4,9.5908667 7.5908667,6 12,6 l 72,0 c 4.409133,0 8,3.5908667 8,8 l 0,71 c 0,4.409133 -3.590867,8 -8,8 l -72,0 z" />
  <rect
     style="opacity:0.3;fill:url(#linearGradient3090);fill-opacity:1;fill-rule:nonzero;stroke:none;display:inline"
     id="rect3723"
     transform="scale(1,-1)"
     y="-92"
     x="5"
     ry="7"
     rx="7"
     height="85"
     width="86" />
  <rect
     style="opacity:0.45;fill:url(#linearGradient3087);fill-opacity:1;fill-rule:nonzero;stroke:none;display:inline"
     id="rect3716"
     transform="scale(1,-1)"
     y="-91"
     x="6"
     ry="6"
     rx="6"
     height="84"
     width="84" />
  <rect
     style="fill:url(#radialGradient3084);fill-opacity:1;stroke:none"
     id="rect3461"
     y="8.2544327"
     x="8.1408806"
     ry="6.1732869"
     rx="5.8527675"
     height="78.516495"
     width="77.914963" />
  <path
     style="opacity:0.07999998;fill:#d9c6ed;fill-opacity:1;stroke:none"
     id="rect3256"
     inkscape:connector-curvature="0"
     d="m 14,8.25 c -3.242433,0 -5.84375,2.7675 -5.84375,6.1875 l 0,49.0625 C 26.980304,49.641102 53.967914,39.706343 86.0625,41.71875 l 0,-27.28125 c 0,-3.420001 -2.63257,-6.1875 -5.875,-6.1875 L 14,8.25 z" />
  <path
     style="font-size:medium;font-style:normal;font-variant:normal;font-weight:normal;font-stretch:normal;text-indent:0;text-align:start;text-decoration:none;line-height:normal;letter-spacing:normal;word-spacing:normal;text-transform:none;direction:ltr;block-progression:tb;writing-mode:lr-tb;text-anchor:start;opacity:0.15;color:#000000;fill:#000000;fill-opacity:1;stroke:none;stroke-width:4;marker:none;visibility:visible;display:inline;overflow:visible;enable-background:accumulate;font-family:Abandoned Bitplane;-inkscape-font-specification:Abandoned Bitplane"
     id="rect3222-3"
     inkscape:connector-curvature="0"
     d="m 19,13 c -3.289406,0 -6,2.710594 -6,6 l 0,58 c 0,3.289406 2.710594,6 6,6 l 58,0 c 3.289406,0 6,-2.710594 6,-6 l 0,-58 c 0,-3.289406 -2.710594,-6 -6,-6 l -58,0 z m 0,4 58,0 c 1.142594,0 2,0.857406 2,2 l 0,58 c 0,1.142594 -0.857406,2 -2,2 l -58,0 c -1.142594,0 -2,-0.857406 -2,-2 l 0,-58 c 0,-1.142594 0.857406,-2 2,-2 z" />
  <path
     style="opacity:0.3;color:#000000;fill:#000000;fill-opacity:1;fill-rule:nonzero;stroke:none;stroke-width:1;marker:none;visibility:visible;display:inline;overflow:visible;enable-background:accumulate"
     id="rect3981"
     inkscape:connector-curvature="0"
     d="m 17,14 c -1.662,0 -3,1.338 -3,3 l 0,62 c 0,1.662 1.338,3 3,3 l 62,0 c 1.662,0 3,-1.338 3,-3 l 0,-62 c 0,-1.662 -1.338,-3 -3,-3 l -62,0 z m 0,1.9375 62,0 c 0.618163,0 1.0625,0.444337 1.0625,1.0625 l 0,62 c 0,0.618163 -0.444337,1.0625 -1.0625,1.0625 l -62,0 c -0.618163,0 -1.0625,-0.444337 -1.0625,-1.0625 l 0,-62 c 0,-0.618163 0.444337,-1.0625 1.0625,-1.0625 z" />
  <path
     style="opacity:0.6;color:#000000;fill:#000000;fill-opacity:1;fill-rule:nonzero;stroke:none;stroke-width:1;marker:none;visibility:visible;display:inline;overflow:visible;enable-background:accumulate"
     id="rect3977"
     inkscape:connector-curvature="0"
     d="m 17,14 c -1.662,0 -3,1.338 -3,3 l 0,62 c 0,1.662 1.338,3 3,3 l 62,0 c 1.662,0 3,-1.338 3,-3 l 0,-62 c 0,-1.662 -1.338,-3 -3,-3 l -62,0 z m 0,0.96875 62,0 c 1.140081,0 2.03125,0.891169 2.03125,2.03125 l 0,62 c 0,1.140081 -0.891169,2.03125 -2.03125,2.03125 l -62,0 c -1.140081,0 -2.03125,-0.891169 -2.03125,-2.03125 l 0,-62 c 0,-1.140081 0.891169,-2.03125 2.03125,-2.03125 z" />
  <path
     style="fill:url(#linearGradient3075);fill-opacity:1;fill-rule:nonzero;stroke:none"
     id="rect2419"
     inkscape:connector-curvature="0"
     d="M 12,6 C 8.676,6 6,8.676 6,12 l 0,72 c 0,3.324 2.676,6 6,6 l 72,0 c 3.324,0 6,-2.676 6,-6 L 90,12 C 90,8.676 87.324,6 84,6 L 12,6 z m 5,7 62,0 c 2.216001,0 4,1.784 4,4 l 0,62 c 10e-7,2.216001 -1.784,4 -4,4 l -62,0 c -2.215999,10e-7 -4,-1.784 -4,-4 l 0,-62 c 0,-2.215999 1.784,-4 4,-4 z" />
  <path
     style="opacity:0.5;fill:url(#linearGradient3072);fill-opacity:1;fill-rule:nonzero;stroke:none"
     id="rect3728"
     inkscape:connector-curvature="0"
     d="M 12,6 C 8.676,6 6,8.676 6,12 l 0,2 0,68 0,2 c 0,0.334721 0.04135,0.6507 0.09375,0.96875 0.0487,0.295596 0.09704,0.596915 0.1875,0.875 0.00988,0.03038 0.020892,0.0636 0.03125,0.09375 0.098865,0.287771 0.2348802,0.547452 0.375,0.8125 0.1445918,0.273507 0.3156161,0.535615 0.5,0.78125 0.1843839,0.245635 0.3737765,0.473472 0.59375,0.6875 0.439947,0.428056 0.94291,0.814526 1.5,1.09375 0.278545,0.139612 0.5734731,0.246947 0.875,0.34375 -0.2562018,-0.100222 -0.4867109,-0.236272 -0.71875,-0.375 -0.00741,-0.0044 -0.023866,0.0045 -0.03125,0 -0.031933,-0.0193 -0.062293,-0.04251 -0.09375,-0.0625 -0.120395,-0.0767 -0.2310226,-0.163513 -0.34375,-0.25 -0.1061728,-0.0808 -0.2132809,-0.161112 -0.3125,-0.25 C 8.4783201,88.557317 8.3087904,88.373362 8.15625,88.1875 8.0486711,88.057245 7.9378561,87.922215 7.84375,87.78125 7.818661,87.74287 7.805304,87.69538 7.78125,87.65625 7.716487,87.553218 7.6510225,87.451733 7.59375,87.34375 7.4927417,87.149044 7.3880752,86.928049 7.3125,86.71875 7.30454,86.69694 7.288911,86.6782 7.28125,86.65625 7.2494249,86.5643 7.2454455,86.469419 7.21875,86.375 7.1884177,86.268382 7.1483606,86.171969 7.125,86.0625 7.0521214,85.720988 7,85.364295 7,85 L 7,83 7,15 7,13 C 7,10.218152 9.2181517,8 12,8 l 2,0 68,0 2,0 c 2.781848,0 5,2.218152 5,5 l 0,2 0,68 0,2 c 0,0.364295 -0.05212,0.720988 -0.125,1.0625 -0.04415,0.206893 -0.08838,0.397658 -0.15625,0.59375 -0.0077,0.02195 -0.0233,0.04069 -0.03125,0.0625 -0.06274,0.173739 -0.138383,0.367449 -0.21875,0.53125 -0.04158,0.0828 -0.07904,0.169954 -0.125,0.25 -0.0546,0.09721 -0.126774,0.18835 -0.1875,0.28125 -0.09411,0.140965 -0.204921,0.275995 -0.3125,0.40625 -0.143174,0.17445 -0.303141,0.346998 -0.46875,0.5 -0.01117,0.0102 -0.01998,0.02115 -0.03125,0.03125 -0.138386,0.125556 -0.285091,0.234436 -0.4375,0.34375 -0.102571,0.07315 -0.204318,0.153364 -0.3125,0.21875 -0.0074,0.0045 -0.02384,-0.0044 -0.03125,0 -0.232039,0.138728 -0.462548,0.274778 -0.71875,0.375 0.301527,-0.0968 0.596455,-0.204138 0.875,-0.34375 0.55709,-0.279224 1.060053,-0.665694 1.5,-1.09375 0.219973,-0.214028 0.409366,-0.441865 0.59375,-0.6875 0.184384,-0.245635 0.355408,-0.507743 0.5,-0.78125 0.14012,-0.265048 0.276135,-0.524729 0.375,-0.8125 0.01041,-0.03078 0.02133,-0.06274 0.03125,-0.09375 0.09046,-0.278085 0.1388,-0.579404 0.1875,-0.875 C 89.95865,84.6507 90,84.334721 90,84 l 0,-2 0,-68 0,-2 C 90,8.676 87.324,6 84,6 L 12,6 z" />
  <path
     style="fill:url(#linearGradient3069);fill-opacity:1;fill-rule:nonzero;stroke:none"
     id="rect3425"
     inkscape:connector-curvature="0"
     d="m 17,12 c -2.752703,0 -5,2.247297 -5,5 l 0,62 c 0,2.752703 2.247298,5 5,5 l 62,0 c 2.752703,0 5.000001,-2.247297 5,-5 l 0,-62 c 0,-2.752703 -2.247297,-5 -5,-5 l -62,0 z m 0,2 62,0 c 1.679298,0 3,1.320703 3,3 l 0,62 c 10e-7,1.679297 -1.320703,3 -3,3 l -62,0 c -1.679296,0 -3,-1.320703 -3,-3 l 0,-62 c 0,-1.679297 1.320703,-3 3,-3 z" />
  <path
     style="opacity:0.4;fill:url(#radialGradient3066);fill-opacity:1;fill-rule:nonzero;stroke:none"
     id="path3615"
     inkscape:connector-curvature="0"
     d="M 12,90 C 8.676,90 6,87.324 6,84 L 6,82 6,14 6,12 c 0,-0.334721 0.04135,-0.6507 0.09375,-0.96875 0.0487,-0.295596 0.09704,-0.596915 0.1875,-0.875 C 6.29113,10.12587 6.302142,10.09265 6.3125,10.0625 6.411365,9.774729 6.5473802,9.515048 6.6875,9.25 6.8320918,8.976493 7.0031161,8.714385 7.1875,8.46875 7.3718839,8.223115 7.5612765,7.995278 7.78125,7.78125 8.221197,7.353194 8.72416,6.966724 9.28125,6.6875 9.559795,6.547888 9.8547231,6.440553 10.15625,6.34375 9.9000482,6.443972 9.6695391,6.580022 9.4375,6.71875 c -0.00741,0.0044 -0.023866,-0.0045 -0.03125,0 -0.031933,0.0193 -0.062293,0.04251 -0.09375,0.0625 -0.120395,0.0767 -0.2310226,0.163513 -0.34375,0.25 -0.1061728,0.0808 -0.2132809,0.161112 -0.3125,0.25 C 8.4783201,7.442683 8.3087904,7.626638 8.15625,7.8125 8.0486711,7.942755 7.9378561,8.077785 7.84375,8.21875 7.818661,8.25713 7.805304,8.30462 7.78125,8.34375 7.716487,8.446782 7.6510225,8.548267 7.59375,8.65625 7.4927417,8.850956 7.3880752,9.071951 7.3125,9.28125 7.30454,9.30306 7.288911,9.3218 7.28125,9.34375 7.2494249,9.4357 7.2454455,9.530581 7.21875,9.625 7.1884177,9.731618 7.1483606,9.828031 7.125,9.9375 7.0521214,10.279012 7,10.635705 7,11 l 0,2 0,68 0,2 c 0,2.781848 2.2181517,5 5,5 l 2,0 68,0 2,0 c 2.781848,0 5,-2.218152 5,-5 l 0,-2 0,-68 0,-2 C 89,10.635705 88.94788,10.279012 88.875,9.9375 88.83085,9.730607 88.78662,9.539842 88.71875,9.34375 88.71105,9.3218 88.69545,9.30306 88.6875,9.28125 88.62476,9.107511 88.549117,8.913801 88.46875,8.75 88.42717,8.6672 88.38971,8.580046 88.34375,8.5 88.28915,8.40279 88.216976,8.31165 88.15625,8.21875 88.06214,8.077785 87.951329,7.942755 87.84375,7.8125 87.700576,7.63805 87.540609,7.465502 87.375,7.3125 87.36383,7.3023 87.35502,7.29135 87.34375,7.28125 87.205364,7.155694 87.058659,7.046814 86.90625,6.9375 86.803679,6.86435 86.701932,6.784136 86.59375,6.71875 c -0.0074,-0.0045 -0.02384,0.0044 -0.03125,0 -0.232039,-0.138728 -0.462548,-0.274778 -0.71875,-0.375 0.301527,0.0968 0.596455,0.204138 0.875,0.34375 0.55709,0.279224 1.060053,0.665694 1.5,1.09375 0.219973,0.214028 0.409366,0.441865 0.59375,0.6875 0.184384,0.245635 0.355408,0.507743 0.5,0.78125 0.14012,0.265048 0.276135,0.524729 0.375,0.8125 0.01041,0.03078 0.02133,0.06274 0.03125,0.09375 0.09046,0.278085 0.1388,0.579404 0.1875,0.875 C 89.95865,11.3493 90,11.665279 90,12 l 0,2 0,68 0,2 c 0,3.324 -2.676,6 -6,6 l -72,0 z" />
  <rect
     style="opacity:0.1;fill:url(#linearGradient2908);fill-opacity:1;fill-rule:nonzero;stroke:#ffffff;stroke-width:0.5;stroke-linecap:round;stroke-linejoin:miter;stroke-miterlimit:4;stroke-opacity:1;stroke-dasharray:none;stroke-dashoffset:0;filter:url(#filter3794)"
     id="rect3171"
     clip-path="url(#clipPath3613)"
     y="15"
     x="15"
     ry="12"
     rx="12"
     height="66"
     width="66" />
  <g
     id="g4554"
     transform="matrix(1.4215212,0,0,1.4215212,60.047122,-161.01497)">
    <path
       d="m 0.71875,134.34375 a 1.3376921,1.3376921 0 0 0 -1.3125,1.4375 c 0.0479101,0.73366 0.0877469,1.43316 0.09375,2.15625 4.931e-4,0.0594 0,0.13708 0,0.21875 -0.002733,0.44264 -0.012419,0.89164 -0.03125,1.3125 -0.0229615,0.51309 -0.0514877,0.99766 -0.09375,1.46875 -0.0922052,1.02773 -0.28723439,1.99757 -0.46875,2.96875 a 1.3376921,1.3376921 0 0 0 -0.5625,0 c -4.8682412,1.18698 -9.487963,5.56408 -9.5625,11.03125 -6.06e-4,0.0445 -0.03125,0.0804 -0.03125,0.125 0,0.0293 -1.41e-4,0.0553 0,0.0937 -0.07347,0.54175 -0.125,1.09449 -0.125,1.65625 0,3.14729 1.175285,6.03405 3.125,8.21875 a 1.3376921,1.3376921 0 0 0 1.90625,0.0937 c 0.124382,0.51997 0.2192592,1.10369 0.375,1.5625 a 1.3376921,1.3376921 0 0 0 0.59375,0.71875 c 0.1768157,0.10422 0.1977348,0.1104 0.0625,0.0312 0.01229,0.007 0.1521542,0.11211 0.40625,0.25 0.3123593,0.16919 0.3605687,0.16927 0.15625,0.0625 0.3165376,0.16554 0.6162631,0.28375 0.90625,0.40625 0.3158864,0.13333 0.6604463,0.28774 1.03125,0.40625 -0.0061,-0.002 0.013599,0.007 0.09375,0.0312 -0.027582,-0.009 0.022868,8.1e-4 0.125,0.0312 0.3394458,0.10209 0.6804249,0.20322 1.0625,0.28125 a 1.3376921,1.3376921 0 0 0 0.03125,0 c 0.55149926,0.11102 0.57288782,0.10254 0.0625,0 0.3745376,0.0743 0.75932539,0.14729 1.15625,0.1875 0.39874502,0.0401 0.81132348,0.0625 1.25,0.0625 0.4387969,0 0.8490079,-0.0219 1.25,-0.0625 0.2535541,-0.0254 0.5436278,-0.0677 0.875,-0.125 0.1886277,-0.0327 0.3696161,-0.0587 0.53125,-0.0937 0.1159035,-0.0249 0.1756829,-0.0357 0.15625,-0.0312 0.3591383,-0.0829 0.6740422,-0.18713 0.96875,-0.28125 0.3699727,-0.11812 0.7226074,-0.27677 1.03125,-0.40625 0.1148588,-0.0484 0.3171228,-0.0846 0.59375,-0.21875 0.3006978,-0.14497 0.5229533,-0.30677 0.75,-0.4375 0.030424,-0.0175 0.1886126,-0.0829 0.40625,-0.21875 0.2460067,-0.15384 0.4629076,-0.29874 0.65625,-0.4375 0.2353382,-0.16915 0.4057868,-0.33649 0.53125,-0.4375 -0.1586863,0.12719 -0.1291199,0.11993 0.09375,-0.0625 0.2972892,-0.2444 0.5693049,-0.48032 0.8125,-0.71875 0.034341,-0.0337 0.049382,-0.0807 0.0625,-0.0937 0.2770498,-0.27596 0.568869,-0.57183 0.84375,-0.90625 1.746183,-2.12443 2.8125,-4.84963 2.8125,-7.8125 0,-2.59431 -0.811856,-5.00746 -2.1875,-7 a 1.3376921,1.3376921 0 0 0 -1.625,-0.46875 c -0.028469,-0.46676 -0.012834,-0.95549 -0.0625,-1.40625 -0.016548,-0.15034 -0.061759,-0.21256 -0.0625,-0.21875 l 0.03125,0 c -0.047066,-0.40371 -0.1322972,-0.78138 -0.1875,-1.125 -0.021554,-0.12913 -0.044315,-0.24554 -0.0625,-0.34375 -0.00145,-0.008 0.00144,-0.0228 0,-0.0312 -0.044443,-0.25902 -0.078085,-0.57731 -0.15625,-0.9375 0.00324,0.0143 -0.012006,-0.0686 -0.03125,-0.15625 -0.00255,-0.0114 0.00258,-0.02 0,-0.0312 -0.095022,-0.41561 -0.2287783,-0.76212 -0.3125,-1.0625 -0.1269049,-0.45531 -0.2760012,-0.87532 -0.40625,-1.25 -0.5719794,-1.64539 -1.2876649,-3.09612 -2.15625,-4.3125 -0.2124098,-0.29746 -0.4432907,-0.58556 -0.6875,-0.875 -0.00613,-0.007 0.006,-0.0241 0,-0.0312 l -0.03125,0 c -0.083639,-0.0988 -0.1627785,-0.18648 -0.21875,-0.25 a 1.3376921,1.3376921 0 0 0 0,-0.0312 c -0.1435066,-0.1597 -0.3157588,-0.31704 -0.5,-0.5 -0.064055,-0.0647 -0.1173425,-0.15333 -0.21875,-0.25 a 1.3376921,1.3376921 0 0 0 -0.03125,0 c -0.1916558,-0.17991 -0.3692207,-0.34189 -0.5625,-0.5 -0.081399,-0.0681 -0.1171801,-0.0938 -0.15625,-0.125 A 1.3376921,1.3376921 0 0 0 3.6875,135.875 c -0.2151294,-0.16855 -0.4094792,-0.32494 -0.625,-0.46875 l 0,0.0312 c 0.08149,0.0551 0.028516,-0.005 -0.15625,-0.125 -0.2642804,-0.1697 -0.5118945,-0.31332 -0.75,-0.4375 -0.056572,-0.0296 -0.070505,-0.0353 -0.0625,-0.0312 a 1.3376921,1.3376921 0 0 0 -0.03125,0 c -0.2211176,-0.11293 -0.4927146,-0.2707 -0.84375,-0.40625 a 1.3376921,1.3376921 0 0 0 -0.5,-0.0937 z"
       id="path4488"
       style="opacity:0.81999966;fill:#0c0202;fill-opacity:1;stroke:none;filter:url(#filter4550)"
       inkscape:original="M 0.75 135.6875 C 0.79867 136.4328 0.83743 137.17624 0.84375 137.9375 C 0.844363 138.0114 0.84375 138.08193 0.84375 138.15625 C 0.84095 138.60979 0.83247 139.08493 0.8125 139.53125 C 0.78935 140.04855 0.76419 140.55599 0.71875 141.0625 C 0.446096 144.10153 -0.21921575 146.93609 -1.1875 149.4375 C -1.331658 148.58568 -1.40625 147.7059 -1.40625 146.8125 C -1.40625 146.27125 -1.39735 145.7456 -1.34375 145.21875 C -5.6819634 146.2765 -9.90625 150.32847 -9.90625 155.0625 C -9.90625 155.095 -9.906368 155.12395 -9.90625 155.15625 C -9.9908 155.7056 -10.03125 156.23903 -10.03125 156.8125 C -10.03125 159.62874 -8.985723 162.21133 -7.25 164.15625 C -7.18335 161.42697 -6.511131 159.18366 -5.625 158.5625 C -5.63654 158.88868 -5.65625 159.22742 -5.65625 159.5625 C -5.65625 162.17893 -5.272457 164.52672 -4.6875 166.25 C -4.66748 166.2618 -4.64499 166.26955 -4.625 166.28125 C -4.508637 166.35005 -4.400329 166.43538 -4.28125 166.5 C -4.23251 166.5264 -4.174179 166.5368 -4.125 166.5625 C -3.860151 166.70101 -3.58954 166.82047 -3.3125 166.9375 C -3.012018 167.06433 -2.719714 167.18107 -2.40625 167.28125 C -2.37451 167.29145 -2.34436 167.3027 -2.3125 167.3125 C -2.28042 167.3225 -2.25096 167.33415 -2.21875 167.34375 C -1.9038812 167.43845 -1.576138 167.52714 -1.25 167.59375 C -1.23013 167.59775 -1.20741 167.58975 -1.1875 167.59375 C -0.84860305 167.66095 -0.505661 167.7146 -0.15625 167.75 C 0.21265 167.7871 0.58985 167.8125 0.96875 167.8125 C 1.3489061 167.8125 1.723383 167.7875 2.09375 167.75 C 2.358265 167.7235 2.616297 167.70095 2.875 167.65625 C 3.033037 167.62885 3.188087 167.5963 3.34375 167.5625 C 3.38558 167.5535 3.42709 167.54085 3.46875 167.53125 C 3.764341 167.46305 4.057767 167.37258 4.34375 167.28125 C 4.651643 167.18295 4.954541 167.06145 5.25 166.9375 C 5.428168 166.8624 5.607988 166.80277 5.78125 166.71875 C 6.023037 166.60218 6.237206 166.47707 6.46875 166.34375 C 6.581453 166.27875 6.702354 166.22502 6.8125 166.15625 C 7.010594 166.03237 7.216902 165.88589 7.40625 165.75 C 7.570182 165.63217 7.717977 165.50142 7.875 165.375 C 7.90457 165.3513 7.93943 165.3365 7.96875 165.3125 C 8.218596 165.1071 8.456778 164.88245 8.6875 164.65625 C 8.70851 164.63565 8.72915 164.61455 8.75 164.59375 C 9.009931 164.33484 9.266869 164.06488 9.5 163.78125 C 11.058418 161.88526 12 159.458 12 156.8125 C 12 154.4916 11.288369 152.3381 10.0625 150.5625 C 10.01776 150.84771 9.942593 151.14088 9.875 151.4375 C 9.8708 151.4572 9.8793 151.4803 9.875 151.5 C 9.8105 151.77781 9.738334 152.06073 9.65625 152.34375 C 9.129408 154.16024 8.265801 156.03286 7.34375 157.40625 C 7.486399 156.92578 7.606481 156.44365 7.71875 155.9375 C 7.958489 154.85667 8.134364 153.73783 8.21875 152.5625 C 8.25716 152.02758 8.27848 151.45611 8.28125 150.90625 C 8.280922 150.86365 8.281753 150.82365 8.28125 150.78125 C 8.28125 149.86289 8.22122 148.96702 8.125 148.09375 C 8.1168 148.01925 8.10263 147.94913 8.09375 147.875 C 8.05148 147.51243 7.993312 147.15991 7.9375 146.8125 C 7.91806 146.69604 7.8961 146.5841 7.875 146.46875 C 7.82144 146.16342 7.78238 145.85571 7.71875 145.5625 C 7.70682 145.5097 7.69978 145.4588 7.6875 145.40625 C 7.60714 145.04815 7.500921 144.71466 7.40625 144.375 C 7.294152 143.97281 7.162034 143.59497 7.03125 143.21875 C 6.496261 141.67977 5.815452 140.34821 5.03125 139.25 C 4.826675 138.96351 4.62341 138.69357 4.40625 138.4375 C 4.33327 138.3497 4.262064 138.27212 4.1875 138.1875 C 4.044964 138.02888 3.896902 137.86463 3.75 137.71875 C 3.67787 137.64585 3.604649 137.56997 3.53125 137.5 C 3.361669 137.34081 3.205519 137.20506 3.03125 137.0625 C 2.97769 137.0177 2.929145 136.9808 2.875 136.9375 C 2.688592 136.79145 2.503116 136.65844 2.3125 136.53125 C 2.26974 136.50235 2.23057 136.4654 2.1875 136.4375 C 1.972775 136.29962 1.749876 136.17652 1.53125 136.0625 C 1.51022 136.0515 1.48985 136.04205 1.46875 136.03125 C 1.229612 135.90912 0.992142 135.781 0.75 135.6875 z "
       inkscape:radius="1.3375584"
       sodipodi:type="inkscape:offset" />
    <g
       transform="translate(-7.2213681,3.8438481)"
       id="g4463">
      <path
         inkscape:connector-curvature="0"
         style="fill:#a40000;fill-opacity:1;stroke:none"
         d="m 8.3125,131.84375 c 0.053386,0.81764 0.09375,1.62876 0.09375,2.46875 0,4.62535 -0.841273,8.93406 -2.28125,12.59375 -0.1607881,-0.9347 -0.25,-1.89468 -0.25,-2.875 0,-0.59391 0.033971,-1.17189 0.09375,-1.75 -4.8386609,1.16066 -8.4375,5.49291 -8.4375,10.6875 0,2.81624 1.045527,5.39883 2.78125,7.34375 0.0666448,-2.72928 0.738869,-4.97259 1.625,-5.59375 -0.01154,0.32618 -0.03125,0.66492 -0.03125,1 0,2.61643 0.3837932,4.96422 0.96875,6.6875 0.020023,0.0118 0.042514,0.0194 0.0625,0.0312 0.1163629,0.0688 0.2246714,0.15413 0.34375,0.21875 0.048738,0.0264 0.107071,0.0368 0.15625,0.0625 0.2648494,0.13851 0.5354599,0.25797 0.8125,0.375 0.3004819,0.12683 0.5927856,0.24357 0.90625,0.34375 0.031739,0.0102 0.061886,0.0214 0.09375,0.0312 0.032085,0.01 0.06154,0.0216 0.09375,0.0312 0.3148694,0.0947 0.6426119,0.18339 0.96875,0.25 0.01987,0.004 0.042591,-0.004 0.0625,0 0.3388965,0.0672 0.6818393,0.12085 1.03125,0.15625 0.3689005,0.0371 0.7461002,0.0625 1.125,0.0625 0.3801562,0 0.7546326,-0.025 1.125,-0.0625 0.2645145,-0.0265 0.522547,-0.049 0.78125,-0.0937 0.158037,-0.0274 0.313087,-0.0598 0.46875,-0.0937 0.04183,-0.009 0.08334,-0.0216 0.125,-0.0312 0.295591,-0.0682 0.589017,-0.15867 0.875,-0.25 0.307893,-0.0983 0.610791,-0.2198 0.90625,-0.34375 0.178168,-0.0751 0.357988,-0.13473 0.53125,-0.21875 0.241787,-0.11657 0.455956,-0.24168 0.6875,-0.375 0.112703,-0.065 0.233604,-0.11873 0.34375,-0.1875 0.198094,-0.12388 0.404402,-0.27036 0.59375,-0.40625 0.163932,-0.11783 0.311727,-0.24858 0.46875,-0.375 0.02957,-0.0237 0.06443,-0.0385 0.09375,-0.0625 0.249846,-0.2054 0.488028,-0.43005 0.71875,-0.65625 0.02101,-0.0206 0.04165,-0.0417 0.0625,-0.0625 0.259931,-0.25891 0.516869,-0.52887 0.75,-0.8125 1.558418,-1.89599 2.5,-4.32325 2.5,-6.96875 0,-2.3209 -0.711631,-4.4744 -1.9375,-6.25 -0.399222,2.50371 -1.347529,4.83441 -2.71875,6.84375 0.59635,-2.00864 0.9375,-4.25543 0.9375,-6.625 0,-7.34686 -3.210051,-13.45221 -7.53125,-15.09375 z"
         id="path3118" />
      <path
         id="path3135"
         d="m 8.3124976,131.84368 c 0.047864,0.74515 0.1082971,1.48442 0.1082971,2.24993 0,4.21526 -0.7542628,8.14195 -2.0453076,11.47716 -0.1441583,-0.85182 -0.2241433,-1.72669 -0.2241433,-2.62009 0,-0.54125 0.030457,-1.06799 0.084054,-1.59484 -4.3382137,1.05775 -8.5632292,5.11377 -8.5632292,9.8478 0,2.56654 0.3603311,4.61535 1.91653376,6.38782 0.059752,-2.48729 2.63176674,-4.85992 3.42624804,-5.42601 -0.010347,0.29726 -0.028018,0.60597 -0.028018,0.91134 0,2.38445 0.1471667,6.16518 0.6716237,7.73567 0.017952,0.0107 0.038117,0.0177 0.056036,0.0285 0.1043279,0.0627 0.2014344,0.14046 0.308197,0.19935 0.043697,0.0241 0.095997,0.0335 0.1400896,0.057 0.2374569,0.12623 0.480079,0.2351 0.7284657,0.34175 0.269404,0.11559 0.5314757,0.22198 0.8125195,0.31327 0.028456,0.009 0.055485,0.0195 0.084054,0.0285 0.028767,0.009 0.055175,0.0197 0.084054,0.0285 0.2823034,0.0863 0.5761486,0.16713 0.8685553,0.22784 0.017815,0.004 0.038186,-0.004 0.056036,0 0.3038455,0.0613 0.6113188,0.11013 0.9245911,0.14239 0.3307463,0.0338 0.6689334,0.057 1.0086448,0.057 0.3408379,0 0.6765834,-0.0228 1.0086449,-0.057 0.2371566,-0.0242 0.468502,-0.0446 0.700448,-0.0854 0.141691,-0.0249 0.280705,-0.0545 0.420268,-0.0854 0.0375,-0.008 0.07472,-0.0197 0.112072,-0.0285 0.265019,-0.0621 0.528097,-0.1446 0.784502,-0.22784 0.276048,-0.0896 0.547618,-0.20031 0.812519,-0.31327 0.159741,-0.0684 0.320963,-0.12278 0.476305,-0.19935 0.216779,-0.10624 0.408798,-0.22025 0.616394,-0.34175 0.101046,-0.0592 0.209443,-0.10821 0.308197,-0.17088 0.177605,-0.1129 0.362576,-0.24639 0.53234,-0.37023 0.146977,-0.10738 0.279486,-0.22654 0.420269,-0.34175 0.02651,-0.0216 0.05777,-0.0351 0.08405,-0.057 0.224006,-0.18719 0.437553,-0.39192 0.644412,-0.59807 0.01884,-0.0188 0.03734,-0.038 0.05604,-0.057 0.233047,-0.23595 0.463411,-0.48197 0.67243,-0.74046 1.397236,-1.72788 2.175789,-4.26816 2.175789,-6.6791 0,-2.11513 0.169602,-3.54664 -0.929479,-5.16481 -0.357932,2.28172 -1.48935,5.01256 -2.71875,6.84375 0.534672,-1.83055 0.953882,-4.35918 0.937271,-6.51859 -0.06564,-8.5335 -3.65675,-13.70416 -7.531021,-15.20016 z"
         style="fill:#f57900;fill-opacity:1;stroke:none"
         inkscape:connector-curvature="0"
         sodipodi:nodetypes="cscscsccscccccccccccscccccccccccccccsccscc" />
      <path
         sodipodi:type="inkscape:offset"
         inkscape:radius="-2.6362109"
         inkscape:original="M 8.3125 131.84375 C 8.360364 132.5889 8.40625 133.32824 8.40625 134.09375 C 8.40625 138.30901 7.6660448 142.22729 6.375 145.5625 C 6.2308417 144.71068 6.15625 143.8309 6.15625 142.9375 C 6.15625 142.39625 6.196403 141.8706 6.25 141.34375 C 1.9117863 142.4015 -2.3125 146.48472 -2.3125 151.21875 C -2.3125 153.78529 -1.9624527 155.82128 -0.40625 157.59375 C -0.346498 155.10646 2.2055187 152.72234 3 152.15625 C 2.989653 152.45351 3 152.75713 3 153.0625 C 3 155.44695 3.131793 159.24201 3.65625 160.8125 C 3.674202 160.8232 3.700831 160.83295 3.71875 160.84375 C 3.8230779 160.90645 3.9244874 160.97236 4.03125 161.03125 C 4.074947 161.05535 4.1121574 161.07025 4.15625 161.09375 C 4.3937069 161.21998 4.6578633 161.33085 4.90625 161.4375 C 5.175654 161.55309 5.4377062 161.65871 5.71875 161.75 C 5.747206 161.759 5.752681 161.77225 5.78125 161.78125 C 5.810017 161.79025 5.846121 161.8037 5.875 161.8125 C 6.1573034 161.8988 6.4575933 161.97054 6.75 162.03125 C 6.767815 162.03525 6.7634 162.02725 6.78125 162.03125 C 7.0850955 162.09255 7.4054777 162.15524 7.71875 162.1875 C 8.0494963 162.2213 8.3790386 162.25 8.71875 162.25 C 9.0595879 162.25 9.4179385 162.2217 9.75 162.1875 C 9.9871566 162.1633 10.205554 162.13455 10.4375 162.09375 C 10.579191 162.06885 10.704187 162.0309 10.84375 162 C 10.88125 161.992 10.931398 161.97755 10.96875 161.96875 C 11.233769 161.90665 11.493595 161.83324 11.75 161.75 C 12.026048 161.6604 12.297599 161.55046 12.5625 161.4375 C 12.722241 161.3691 12.875908 161.32657 13.03125 161.25 C 13.248029 161.14376 13.448654 161.02775 13.65625 160.90625 C 13.757296 160.84705 13.869996 160.78142 13.96875 160.71875 C 14.146355 160.60585 14.330236 160.46759 14.5 160.34375 C 14.646977 160.23637 14.765467 160.11521 14.90625 160 C 14.93276 159.9784 14.97372 159.99065 15 159.96875 C 15.224006 159.78156 15.449391 159.58115 15.65625 159.375 C 15.67509 159.3562 15.70005 159.3315 15.71875 159.3125 C 15.951797 159.07655 16.165981 158.82099 16.375 158.5625 C 17.772236 156.83462 18.5625 154.28594 18.5625 151.875 C 18.5625 149.75987 18.724081 148.33692 17.625 146.71875 C 17.267068 149.00047 16.13565 151.73131 14.90625 153.5625 C 15.440922 151.73195 15.860361 149.19066 15.84375 147.03125 C 15.77811 138.49775 12.186771 133.33975 8.3125 131.84375 z "
         style="opacity:0.8;fill:#fce94f;fill-opacity:1;stroke:none;filter:url(#filter4367)"
         id="path3917"
         d="m 10.75,137.53125 c -0.297972,3.206 -0.8601564,6.26633 -1.90625,8.96875 A 2.6364745,2.6364745 0 0 1 3.78125,146 c -0.024126,-0.14256 -0.010492,-0.29387 -0.03125,-0.4375 -1.8918701,1.44796 -3.37591575,3.52495 -3.40625,5.59375 0.37846134,-0.35836 0.7957042,-0.92162 1.125,-1.15625 a 2.6364745,2.6364745 0 0 1 4.15625,2.25 c -0.00605,0.17383 0,0.44758 0,0.8125 0,1.14366 0.032479,2.64455 0.125,4 0.062702,0.9186 0.1839015,1.40815 0.28125,1.96875 0.1762299,0.0739 0.3308783,0.17307 0.46875,0.21875 0.01215,0.004 0.019041,-0.004 0.03125,0 0.017758,0.006 0.01347,0.0247 0.03125,0.0312 l 0,-0.0312 c 0.1431917,0.0448 0.1952915,0.0622 0.09375,0.0312 0.1730913,0.0529 0.3855872,0.10654 0.625,0.15625 a 2.6364745,2.6364745 0 0 1 0.03125,0 c 0.2932422,0.0592 0.5382187,0.10963 0.6875,0.125 0.3047094,0.0311 0.5275161,0.0625 0.71875,0.0625 0.1949137,0 0.4627798,-0.0329 0.75,-0.0625 0.1899913,-0.0194 0.3380272,-0.034 0.5,-0.0625 -0.047724,0.008 0.052507,-0.005 0.3125,-0.0625 a 2.6364745,2.6364745 0 0 1 0,-0.0312 c -0.126975,0.0271 -0.05795,0.0357 0.09375,0 0.188348,-0.0441 0.37062,-0.094 0.5625,-0.15625 0.156621,-0.0508 0.359087,-0.14993 0.59375,-0.25 0.358618,-0.15356 0.459576,-0.18209 0.34375,-0.125 0.112956,-0.0554 0.237578,-0.13299 0.4375,-0.25 0.10549,-0.0618 0.214343,-0.10237 0.25,-0.125 0.0505,-0.0321 0.182736,-0.141 0.375,-0.28125 -0.07079,0.0517 0.03173,-0.0202 0.3125,-0.25 0.03411,-0.0278 0.02892,-0.006 0.0625,-0.0312 0.181227,-0.15144 0.334965,-0.30417 0.46875,-0.4375 0.02569,-0.0256 0.06522,-0.034 0.0625,-0.0312 0.131752,-0.13339 0.279206,-0.32809 0.46875,-0.5625 0.145148,-0.1795 0.242658,-0.49515 0.375,-0.71875 a 2.6364745,2.6364745 0 0 1 -2.3125,-3.375 c 0.454605,-1.55643 0.857613,-3.94784 0.84375,-5.75 -0.03352,-4.35773 -1.12041,-7.41664 -2.46875,-9.53125 z"
         transform="translate(-0.21538862,0.95339016)" />
      <path
         transform="translate(-0.21538862,0.95339016)"
         d="m 10.75,137.53125 c -0.297972,3.206 -0.8601564,6.26633 -1.90625,8.96875 A 2.6364745,2.6364745 0 0 1 3.78125,146 c -0.024126,-0.14256 -0.010492,-0.29387 -0.03125,-0.4375 -1.8918701,1.44796 -3.37591575,3.52495 -3.40625,5.59375 0.37846134,-0.35836 0.7957042,-0.92162 1.125,-1.15625 a 2.6364745,2.6364745 0 0 1 4.15625,2.25 c -0.00605,0.17383 0,0.44758 0,0.8125 0,1.14366 0.032479,2.64455 0.125,4 0.062702,0.9186 0.1839015,1.40815 0.28125,1.96875 0.1762299,0.0739 0.3308783,0.17307 0.46875,0.21875 0.01215,0.004 0.019041,-0.004 0.03125,0 0.017758,0.006 0.01347,0.0247 0.03125,0.0312 l 0,-0.0312 c 0.1431917,0.0448 0.1952915,0.0622 0.09375,0.0312 0.1730913,0.0529 0.3855872,0.10654 0.625,0.15625 a 2.6364745,2.6364745 0 0 1 0.03125,0 c 0.2932422,0.0592 0.5382187,0.10963 0.6875,0.125 0.3047094,0.0311 0.5275161,0.0625 0.71875,0.0625 0.1949137,0 0.4627798,-0.0329 0.75,-0.0625 0.1899913,-0.0194 0.3380272,-0.034 0.5,-0.0625 -0.047724,0.008 0.052507,-0.005 0.3125,-0.0625 a 2.6364745,2.6364745 0 0 1 0,-0.0312 c -0.126975,0.0271 -0.05795,0.0357 0.09375,0 0.188348,-0.0441 0.37062,-0.094 0.5625,-0.15625 0.156621,-0.0508 0.359087,-0.14993 0.59375,-0.25 0.358618,-0.15356 0.459576,-0.18209 0.34375,-0.125 0.112956,-0.0554 0.237578,-0.13299 0.4375,-0.25 0.10549,-0.0618 0.214343,-0.10237 0.25,-0.125 0.0505,-0.0321 0.182736,-0.141 0.375,-0.28125 -0.07079,0.0517 0.03173,-0.0202 0.3125,-0.25 0.03411,-0.0278 0.02892,-0.006 0.0625,-0.0312 0.181227,-0.15144 0.334965,-0.30417 0.46875,-0.4375 0.02569,-0.0256 0.06522,-0.034 0.0625,-0.0312 0.131752,-0.13339 0.279206,-0.32809 0.46875,-0.5625 0.145148,-0.1795 0.242658,-0.49515 0.375,-0.71875 a 2.6364745,2.6364745 0 0 1 -2.3125,-3.375 c 0.454605,-1.55643 0.857613,-3.94784 0.84375,-5.75 -0.03352,-4.35773 -1.12041,-7.41664 -2.46875,-9.53125 z"
         id="path4457"
         style="opacity:0.26315792;fill:#eeeeec;fill-opacity:1;stroke:none"
         inkscape:original="M 8.3125 131.84375 C 8.360364 132.5889 8.40625 133.32824 8.40625 134.09375 C 8.40625 138.30901 7.6660448 142.22729 6.375 145.5625 C 6.2308417 144.71068 6.15625 143.8309 6.15625 142.9375 C 6.15625 142.39625 6.196403 141.8706 6.25 141.34375 C 1.9117863 142.4015 -2.3125 146.48472 -2.3125 151.21875 C -2.3125 153.78529 -1.9624527 155.82128 -0.40625 157.59375 C -0.346498 155.10646 2.2055187 152.72234 3 152.15625 C 2.989653 152.45351 3 152.75713 3 153.0625 C 3 155.44695 3.131793 159.24201 3.65625 160.8125 C 3.674202 160.8232 3.700831 160.83295 3.71875 160.84375 C 3.8230779 160.90645 3.9244874 160.97236 4.03125 161.03125 C 4.074947 161.05535 4.1121574 161.07025 4.15625 161.09375 C 4.3937069 161.21998 4.6578633 161.33085 4.90625 161.4375 C 5.175654 161.55309 5.4377062 161.65871 5.71875 161.75 C 5.747206 161.759 5.752681 161.77225 5.78125 161.78125 C 5.810017 161.79025 5.846121 161.8037 5.875 161.8125 C 6.1573034 161.8988 6.4575933 161.97054 6.75 162.03125 C 6.767815 162.03525 6.7634 162.02725 6.78125 162.03125 C 7.0850955 162.09255 7.4054777 162.15524 7.71875 162.1875 C 8.0494963 162.2213 8.3790386 162.25 8.71875 162.25 C 9.0595879 162.25 9.4179385 162.2217 9.75 162.1875 C 9.9871566 162.1633 10.205554 162.13455 10.4375 162.09375 C 10.579191 162.06885 10.704187 162.0309 10.84375 162 C 10.88125 161.992 10.931398 161.97755 10.96875 161.96875 C 11.233769 161.90665 11.493595 161.83324 11.75 161.75 C 12.026048 161.6604 12.297599 161.55046 12.5625 161.4375 C 12.722241 161.3691 12.875908 161.32657 13.03125 161.25 C 13.248029 161.14376 13.448654 161.02775 13.65625 160.90625 C 13.757296 160.84705 13.869996 160.78142 13.96875 160.71875 C 14.146355 160.60585 14.330236 160.46759 14.5 160.34375 C 14.646977 160.23637 14.765467 160.11521 14.90625 160 C 14.93276 159.9784 14.97372 159.99065 15 159.96875 C 15.224006 159.78156 15.449391 159.58115 15.65625 159.375 C 15.67509 159.3562 15.70005 159.3315 15.71875 159.3125 C 15.951797 159.07655 16.165981 158.82099 16.375 158.5625 C 17.772236 156.83462 18.5625 154.28594 18.5625 151.875 C 18.5625 149.75987 18.724081 148.33692 17.625 146.71875 C 17.267068 149.00047 16.13565 151.73131 14.90625 153.5625 C 15.440922 151.73195 15.860361 149.19066 15.84375 147.03125 C 15.77811 138.49775 12.186771 133.33975 8.3125 131.84375 z "
         inkscape:radius="-2.6362109"
         sodipodi:type="inkscape:offset" />
    </g>
  </g>
</svg>
